{"title":"Community S05E07 HDTV x264 AAC [GWC].mp4","uid":9676203,"size":69600740,"categoryP":"video","categoryS":"tv_shows","magnet":"?xt=urn:btih:1524a7848653ad8634969aeb228a7b1070f939bb&amp;dn=Community+S05E07+HDTV+x264+AAC+%5BGWC%5D.mp4&amp;tr=udp%3A%2F%2Ftracker.openbittorrent.com%3A80&amp;tr=udp%3A%2F%2Fopen.demonii.com%3A1337&amp;tr=udp%3A%2F%2Ftracker.coppersurfer.tk%3A6969&amp;tr=udp%3A%2F%2Fexodus.desync.com%3A6969","seeders":2,"leechers":0,"uploader":"canc232","files":1,"time":1393565789,"description":"Community S05E07 HDTV x264 AAC [GWC]\n\n\nStoryline\n\nA lawyer is scuppered when it is discovered that he has falsely claimed to have a bachelor's degree. He is suspended and enrolls himself into Community college. He forms a study group so that he can get closer to an attractive student. The study group includes a millionaire, a former drug addict, a former quarter-back, a single mother, and a film student. \n\n\nSCREENS : &lt;a href=&quot;\nhttp://i.imgur.com/z84ZQrC.jpg&quot; rel=&quot;nofollow&quot; target=&quot;_NEW&quot;&gt;\nhttp://i.imgur.com/z84ZQrC.jpg&lt;/a&gt; &lt;a href=&quot;\nhttp://i.imgur.com/oopulBJ.jpg&quot; rel=&quot;nofollow&quot; target=&quot;_NEW&quot;&gt;\nhttp://i.imgur.com/oopulBJ.jpg&lt;/a&gt; &lt;a href=&quot;\nhttp://i.imgur.com/pb51qK2.jpg&quot; rel=&quot;nofollow&quot; target=&quot;_NEW&quot;&gt;\nhttp://i.imgur.com/pb51qK2.jpg&lt;/a&gt;\n\nMEDIA INFO :\nGeneral \nFormat : MPEG-4 \nFormat profile : Base Media \nFile size : 66.4 MiB \nDuration : 21mn 13s \nOverall bit rate : 437 Kbps \n\nVideo \nFormat : AVC \nFormat profile : &lt;a class=&quot;__cf_email__&quot; href=&quot;/cdn-cgi/l/email-protection&quot; data-cfemail=&quot;a2eacbc5cae2ee918c92&quot;&gt;[email&amp;#160;protected]&lt;/a&gt;&lt;script cf-hash='f9e31' type=&quot;text/javascript&quot;&gt;\n/* &lt;![CDATA[ */!function(){try{var t=&quot;currentScript&quot;in document?document.currentScript:function(){for(var t=document.getElementsByTagName(&quot;script&quot;),e=t.length;e--;)if(t[e].getAttribute(&quot;cf-hash&quot;))return t[e]}();if(t&amp;&amp;t.previousSibling){var e,r,n,i,c=t.previousSibling,a=c.getAttribute(&quot;data-cfemail&quot;);if(a){for(e=&quot;&quot;,r=parseInt(a.substr(0,2),16),n=2;a.length-n;n+=2)i=parseInt(a.substr(n,2),16)^r,e+=String.fromCharCode(i);e=document.createTextNode(e),c.parentNode.replaceChild(e,c)}}}catch(u){}}();/* ]]&gt; */&lt;/script&gt; \nFormat settings, CABAC : Yes \nFormat settings, ReFrames : 4 frames \nDuration : 21mn 13s \nBit rate : 374 Kbps \nMaximum bit rate : 1 318 Kbps \nWidth : 720 pixels \nHeight : 400 pixels \nDisplay aspect ratio : 16:9 \nFrame rate mode : Constant \nFrame rate : 23.976 fps \nStream size : 56.8 MiB (86%) \nTitle : Community S05E07 HDTV x264 AAC [GWC] \nWriting library : x264 core\n\nAudio \nFormat : AAC \nFormat profile : HE-AAC\nDuration : 21mn 13s \nBit rate mode : Variable \nChannel(s) : 2 channels \nSampling rate : 24.0 KHz \nStream size : 9.10 MiB (14%) \nLanguage : English ","torrent":{"xt":"urn:btih:1524a7848653ad8634969aeb228a7b1070f939bb","amp;dn":"Community+S05E07+HDTV+x264+AAC+%5BGWC%5D.mp4","amp;tr":["udp%3A%2F%2Ftracker.openbittorrent.com%3A80","udp%3A%2F%2Fopen.demonii.com%3A1337","udp%3A%2F%2Ftracker.coppersurfer.tk%3A6969","udp%3A%2F%2Fexodus.desync.com%3A6969"],"infoHash":"1524a7848653ad8634969aeb228a7b1070f939bb","infoHashBuffer":{"type":"Buffer","data":[21,36,167,132,134,83,173,134,52,150,154,235,34,138,123,16,112,249,57,187]},"announce":[],"urlList":[]}}